# This file is brought to you by Roblox Corporation
# Generated by Roblox Studio

mtllib Crystall.mtl

g Crystal1

v 0.0561717 -1.68558 -0.0449563 
v -0.478865 -0.697071 -0.477075 
v 0.467427 -0.689555 -0.480361 
v -0.478865 -0.697071 -0.477075 
v 0.0561717 -1.68558 -0.0449563 
v 0.056405 -1.68596 -0.0241733 
v -0.478865 -0.689555 -0.48036 
v 0.056405 -1.68596 -0.0241733 
v 0.0561717 -1.68558 -0.0449563 
v 0.463215 -0.741994 0.467446 
v -0.467868 -0.71498 0.467695 
v 0.478863 0.665398 -0.168914 
v 0.478865 0.659408 0.479544 
v 0.478864 0.659401 0.480361 
v 0.478865 0.659408 0.479544 
v 0.478863 0.665398 -0.168914 
v 0.478863 0.664008 0.47957 
v 0.478863 0.703138 -0.468471 
v 0.478865 0.659408 0.479544 
v 0.478863 0.664008 0.47957 
v 0.467426 0.691157 0.479726 
v 0.478864 0.668159 -0.467848 
v 0.478864 0.668159 -0.467848 
v 0.478864 0.432556 -0.470019 
v 0.478863 0.664008 0.47957 
v 0.478863 0.703138 -0.468471 
v 0.467426 0.691157 0.479726 
v 0.478864 0.425467 0.478206 
v 0.478864 -0.666573 0.468141 
v 0.478865 -0.70485 0.467788 
v 0.478864 -0.666573 0.468141 
v 0.478864 0.425467 0.478206 
v 0.478864 -0.666595 0.471954 
v 0.478864 -0.666573 0.468141 
v 0.478864 -0.666595 0.471954 
v -0.478865 -0.666573 0.468141 
v 0.478864 0.659401 0.480361 
v 0.478864 0.659401 0.480361 
v 0.478865 -0.70485 0.467788 
v 0.478865 -0.66241 -0.48011 
v 0.478864 0.668159 -0.467848 
v 0.478865 -0.66241 -0.48011 
v 0.478864 0.432556 -0.470019 
v 0.478864 0.668159 -0.467848 
v -0.478864 0.659408 0.479544 
v 0.463215 -0.741994 0.467446 
v -0.478864 0.432557 -0.470019 
v -0.478864 -0.666595 0.471954 
v 0.478864 -0.666595 0.471954 
v 0.478864 0.425467 0.478206 
v -0.478864 -0.666595 0.471954 
v -0.478865 -0.666573 0.468141 
v -0.467868 -0.71498 0.467695 
v -0.478865 -0.694639 0.467882 
v -0.478865 -0.694639 0.467882 
v 0.478865 -0.70485 0.467788 
v 0.467427 -0.689555 -0.480361 
v -0.478865 -0.689555 -0.48036 
v -0.478865 -0.697071 -0.477075 
v -0.478864 -0.661148 -0.476279 
v -0.478864 0.432557 -0.470019 
v -0.478865 -0.689555 -0.48036 
v 0.467427 -0.689555 -0.480361 
v 0.478865 -0.66241 -0.48011 
v 0.056405 -1.68596 -0.0241733 
v 0.463215 -0.741994 0.467446 
v -0.467868 -0.71498 0.467695 
v 0.463216 0.740282 -0.468257 
v 0.463216 0.740282 -0.468257 
v 0.478863 0.703138 -0.468471 
v 0.478864 0.432556 -0.470019 
v -0.478864 0.432557 -0.470019 
v -0.478864 0.668167 -0.46867 
v -0.478864 -0.661148 -0.476279 
v -0.478865 0.691157 0.479726 
v -0.478864 0.668167 -0.46867 
v -0.478865 -0.666573 0.468141 
v -0.478865 0.698659 0.476414 
v -0.478865 0.698659 0.476414 
v -0.478865 0.691157 0.479726 
v 0.467426 0.691157 0.479726 
v -0.478864 -0.666595 0.471954 
v -0.478865 0.691157 0.479726 
v -0.478864 0.425467 0.478206 
v -0.478864 -0.661148 -0.476279 
v -0.478864 0.659408 0.479544 
v -0.478864 0.425467 0.478206 
v -0.478865 0.659401 0.480361 
v -0.478864 0.659408 0.479544 
v -0.478864 0.425467 0.478206 
v -0.478865 0.659401 0.480361 
v -0.478865 0.659401 0.480361 
v 0.0561726 1.68566 0.0408471 
v 0.0561726 1.68566 0.0408471 
v 0.056405 1.68596 0.0200623 
v 0.0561726 1.68566 0.0408471 
v 0.056405 1.68596 0.0200623 
v -0.478865 0.698659 0.476414 
v -0.467868 0.713267 -0.468413 
v 0.056405 1.68596 0.0200623 
v 0.463216 0.740282 -0.468257 
v -0.467868 0.713267 -0.468413 
v -0.478864 0.692928 -0.468529 
v -0.478864 0.692928 -0.468529 
v -0.478865 -0.694639 0.467882 
v -0.467868 0.713267 -0.468413 
v -0.478864 0.692928 -0.468529 
v -0.478865 -0.666573 0.468141 

vn 0 -0.401575 -0.913386 
vn 0 -0.401575 -0.913386 
vn 0 -0.401575 -0.913386 
vn -0.88189 -0.472441 0 
vn -0.88189 -0.472441 0 
vn -0.88189 -0.472441 0 
vn 0 -0.401575 -0.913386 
vn 0.92126 -0.385827 -0.015748 
vn 0.92126 -0.385827 -0.015748 
vn 0.92126 -0.385827 -0.015748 
vn -0.88189 -0.472441 0 
vn 0 1 0.00787402 
vn 0 1 0.00787402 
vn 0 1 0.00787402 
vn 1 0 0 
vn 1 0 0 
vn 1 0 0 
vn 1 0 0 
vn 0 -0.00787402 1 
vn 0 -0.00787402 1 
vn 0 -0.00787402 1 
vn 0 1 0.00787402 
vn 1 0 0 
vn 1 0 0 
vn 0.92126 0.385827 0.015748 
vn 0.92126 0.385827 0.015748 
vn 0.92126 0.385827 0.015748 
vn 0 -0.00787402 1 
vn 0 -0.00787402 1 
vn 0 -0.00787402 1 
vn 1 0 0 
vn 1 0 0 
vn 1 0 0 
vn 0 -1 -0.00787402 
vn 0 -1 -0.00787402 
vn 0 -1 -0.00787402 
vn 0 -0.00787402 1 
vn 1 0 0 
vn 1 0 0 
vn 1 0 0 
vn 0 0.00787402 -1 
vn 0 0.00787402 -1 
vn 0 0.00787402 -1 
vn 1 0 0 
vn 0 1 0.00787402 
vn 0 -0.00787402 1 
vn 0 0.00787402 -1 
vn 0 -0.00787402 1 
vn 0 -0.00787402 1 
vn 0 -0.00787402 1 
vn 0 -1 -0.00787402 
vn 0 -0.00787402 1 
vn 0 -0.00787402 1 
vn -0.88189 -0.472441 0 
vn 0 -0.00787402 1 
vn 0.92126 -0.385827 -0.015748 
vn 0.92126 -0.385827 -0.015748 
vn -1 0 0 
vn -1 0 0 
vn -1 0 0 
vn -1 0 0 
vn 0 0.00787402 -1 
vn 0 0.00787402 -1 
vn 0.92126 -0.385827 -0.015748 
vn -0.015748 -0.456693 0.889764 
vn -0.015748 -0.456693 0.889764 
vn -0.015748 -0.456693 0.889764 
vn 0.92126 0.385827 0.015748 
vn 0 0.00787402 -1 
vn 0 0.00787402 -1 
vn 0 0.00787402 -1 
vn 0 0.00787402 -1 
vn 0 0.00787402 -1 
vn 0 0.00787402 -1 
vn -1 0 0 
vn -1 0 0 
vn -1 0 0 
vn -1 0 0 
vn 0 0.401575 0.913386 
vn 0 0.401575 0.913386 
vn 0 0.401575 0.913386 
vn -1 0 0 
vn 0 -0.00787402 1 
vn 0 -0.00787402 1 
vn -1 0 0 
vn 0 -0.00787402 1 
vn 0 -0.00787402 1 
vn 0 -0.00787402 1 
vn -1 0 0 
vn -1 0 0 
vn -1 0 0 
vn 0 1 0.00787402 
vn 0.92126 0.385827 0.015748 
vn 0 0.401575 0.913386 
vn 0.92126 0.385827 0.015748 
vn -0.88189 0.472441 0 
vn -0.88189 0.472441 0 
vn -0.88189 0.472441 0 
vn -0.015748 0.456693 -0.889764 
vn -0.015748 0.456693 -0.889764 
vn -0.015748 0.456693 -0.889764 
vn -0.88189 0.472441 0 
vn -0.88189 0.472441 0 
vn -1 0 0 
vn -1 0 0 
vn 0 0.00787402 -1 
vn 0 0.00787402 -1 
vn -1 0 0 

vt -0.0870807 3.17764 
vt -0.0202011 3.30121 
vt -0.138488 3.30215 
vt -0.139694 3.30121 
vt -0.0856788 3.17764 
vt -0.0830809 3.17759 
vt -0.0202011 3.30215 
vt -0.0770376 3.17759 
vt -0.0744397 3.17764 
vt -0.13849 3.29559 
vt -0.0215974 3.29897 
vt -0.139917 3.36723 
vt -0.139917 3.44828 
vt -0.139917 3.44838 
vt -0.140002 3.47077 
vt -0.058945 3.47151 
vt -0.140005 3.47134 
vt -0.0215004 3.47623 
vt -0.0202011 3.47077 
vt -0.0202013 3.47134 
vt -0.0216309 3.47473 
vt -0.139917 3.32986 
vt -0.0215783 3.47186 
vt -0.0213069 3.44241 
vt -0.140005 3.47134 
vt -0.0215004 3.47623 
vt -0.140025 3.47473 
vt -0.0202012 3.44152 
vt -0.0202012 3.30502 
vt -0.0202011 3.30023 
vt -0.138577 3.30502 
vt -0.139835 3.44152 
vt -0.139053 3.30502 
vt -0.0202012 3.44686 
vt -0.0202012 3.44733 
vt -0.139917 3.44686 
vt -0.0202012 3.47076 
vt -0.140104 3.47076 
vt -0.138533 3.30023 
vt -0.0200454 3.30554 
vt -0.139917 3.47186 
vt -0.139917 3.30554 
vt -0.139917 3.44241 
vt -0.0215783 3.47186 
vt -0.0202012 3.44828 
vt -0.0221574 3.29559 
vt -0.0202012 3.44241 
vt -0.139917 3.30502 
vt -0.0202012 3.30502 
vt -0.0202012 3.44152 
vt -0.139917 3.44733 
vt -0.139917 3.30502 
vt -0.138543 3.29897 
vt -0.021574 3.30151 
vt -0.139917 3.30151 
vt -0.138533 3.30023 
vt -0.0200141 3.30215 
vt -0.140104 3.30215 
vt -0.139694 3.30121 
vt -0.139594 3.3057 
vt -0.138812 3.44241 
vt -0.0202011 3.30215 
vt -0.138488 3.30215 
vt -0.0200454 3.30554 
vt -0.0730086 3.17759 
vt -0.0221574 3.29559 
vt -0.138543 3.29897 
vt -0.0215271 3.48088 
vt -0.137961 3.48088 
vt -0.139917 3.47623 
vt -0.139917 3.44241 
vt -0.0202012 3.44241 
vt -0.0202012 3.47186 
vt -0.0202012 3.3057 
vt -0.0200935 3.47473 
vt -0.138643 3.47186 
vt -0.0215416 3.30502 
vt -0.0205074 3.47567 
vt -0.139917 3.47567 
vt -0.139917 3.47473 
vt -0.0216309 3.47473 
vt -0.021065 3.30502 
vt -0.139917 3.47473 
vt -0.139917 3.44152 
vt -0.139594 3.3057 
vt -0.139917 3.47077 
vt -0.139917 3.44152 
vt -0.139917 3.47076 
vt -0.0201162 3.47077 
vt -0.0202835 3.44152 
vt -0.0200141 3.47076 
vt -0.0202011 3.44838 
vt -0.0851651 3.59905 
vt -0.0730376 3.59905 
vt -0.082567 3.59909 
vt -0.0749533 3.59905 
vt -0.0775514 3.59909 
vt -0.0205074 3.47567 
vt -0.0215757 3.4775 
vt -0.0871098 3.59909 
vt -0.137961 3.48088 
vt -0.138611 3.4775 
vt -0.138625 3.47496 
vt -0.138625 3.47496 
vt -0.021574 3.30151 
vt -0.0215757 3.4775 
vt -0.0202012 3.47496 
vt -0.0215416 3.30502 

usemtl Crystal1Mtl

f 1/1/1 2/2/2 3/3/3 
f 4/4/4 5/5/5 6/6/6 
f 3/3/3 2/2/2 7/7/7 
f 8/8/8 9/9/9 10/10/10 
f 4/4/4 6/6/6 11/11/11 
f 12/12/12 13/13/13 14/14/14 
f 15/15/15 16/16/16 17/17/17 
f 17/17/17 16/16/16 18/18/18 
f 19/19/19 20/20/20 21/21/21 
f 22/22/22 12/12/12 14/14/14 
f 16/16/16 23/23/23 18/18/18 
f 18/18/18 23/23/23 24/24/24 
f 25/25/25 26/26/26 27/27/27 
f 28/28/28 29/29/29 30/30/30 
f 31/31/31 32/32/32 33/33/33 
f 34/34/34 35/35/35 36/36/36 
f 30/30/30 37/37/37 28/28/28 
f 38/38/38 39/39/39 40/40/40 
f 41/41/41 42/42/42 43/43/43 
f 40/40/40 44/44/44 38/38/38 
f 14/14/14 13/13/13 45/45/45 
f 30/30/30 29/29/29 46/46/46 
f 43/43/43 42/42/42 47/47/47 
f 48/48/48 49/49/49 50/50/50 
f 35/35/35 51/51/51 36/36/36 
f 29/29/29 52/52/52 53/53/53 
f 11/11/11 54/54/54 4/4/4 
f 55/55/55 53/53/53 52/52/52 
f 56/56/56 10/10/10 57/57/57 
f 58/58/58 59/59/59 60/60/60 
f 58/58/58 60/60/60 61/61/61 
f 42/42/42 62/62/62 47/47/47 
f 62/62/62 42/42/42 63/63/63 
f 57/57/57 64/64/64 56/56/56 
f 65/65/65 66/66/66 67/67/67 
f 26/26/26 68/68/68 27/27/27 
f 69/69/69 70/70/70 71/71/71 
f 72/72/72 73/73/73 71/71/71 
f 73/73/73 72/72/72 74/74/74 
f 75/75/75 76/76/76 77/77/77 
f 76/76/76 75/75/75 78/78/78 
f 79/79/79 80/80/80 81/81/81 
f 77/77/77 82/82/82 75/75/75 
f 83/83/83 48/48/48 84/84/84 
f 77/77/77 76/76/76 85/85/85 
f 21/21/21 83/83/83 86/86/86 
f 86/86/86 83/83/83 84/84/84 
f 86/86/86 19/19/19 21/21/21 
f 87/87/87 28/28/28 88/88/88 
f 50/50/50 84/84/84 48/48/48 
f 89/89/89 90/90/90 91/91/91 
f 45/45/45 92/92/92 14/14/14 
f 37/37/37 88/88/88 28/28/28 
f 93/93/93 27/27/27 68/68/68 
f 81/81/81 94/94/94 79/79/79 
f 95/95/95 93/93/93 68/68/68 
f 96/96/96 97/97/97 98/98/98 
f 99/99/99 100/100/100 101/101/101 
f 97/97/97 102/102/102 98/98/98 
f 103/103/103 98/98/98 102/102/102 
f 78/78/78 104/104/104 76/76/76 
f 9/9/9 57/57/57 10/10/10 
f 59/59/59 105/105/105 60/60/60 
f 53/53/53 46/46/46 29/29/29 
f 69/69/69 71/71/71 73/73/73 
f 106/106/106 73/73/73 107/107/107 
f 73/73/73 106/106/106 69/69/69 
f 60/60/60 105/105/105 108/108/108 

